<svg xmlns="http://www.w3.org/2000/svg" width="30" height="48" viewBox="0 0 30 48"><g><path d="M14 31.748H4c-1.105 0-2-.933-2-2.085v-8.336c0-1.152.895-2.085 2-2.085h10V15.04c0-1.612 1.821-2.473 2.985-1.412l11.233 8.878c1.9 1.5 1.9 4.477 0 5.978l-11.233 8.878c-1.164 1.061-2.985.2-2.985-1.412v-4.202z" opacity=".2"/><path d="M12 29.997H2a2 2 0 0 1-2-2v-8a2 2 0 0 1 2-2h10v-4.033c0-1.547 1.821-2.373 2.985-1.355l11.233 8.52a3.599 3.599 0 0 1 0 5.736l-11.233 8.52C13.821 36.403 12 35.577 12 34.03v-4.033z"/></g></svg>