<svg xmlns="http://www.w3.org/2000/svg" width="30" height="48" viewBox="0 0 30 48"><g><path d="M18.003 31.997h10a2 2 0 0 0 2-2v-8a2 2 0 0 0-2-2h-10v-4.033c0-1.547-1.821-2.373-2.985-1.355l-11.233 8.52a3.599 3.599 0 0 0 0 5.736l11.233 8.52c1.164 1.018 2.985.192 2.985-1.355v-4.033z" opacity=".2"/><path d="M16.003 29.997h10a2 2 0 0 0 2-2v-8a2 2 0 0 0-2-2h-10v-4.033c0-1.547-1.821-2.373-2.985-1.355l-11.233 8.52a3.599 3.599 0 0 0 0 5.736l11.233 8.52c1.164 1.018 2.985.192 2.985-1.355v-4.033z"/></g></svg>