<?xml version="1.0" encoding="utf-8"?><svg xmlns="http://www.w3.org/2000/svg" xmlns:xlink="http://www.w3.org/1999/xlink"><symbol viewBox="0 0 32 32" id="alert"><path d="M17.3 23.86a1.44 1.44 0 0 1-1.44 1.44h-.72a1.44 1.44 0 0 1-1.44-1.44v-.72c0-.795.645-1.44 1.44-1.44h.72c.795 0 1.44.645 1.44 1.44v.72zM14 10.32c0-.73.537-1.32 1.2-1.32h.6c.663 0 1.2.59 1.2 1.32v8.36c0 .73-.537 1.32-1.2 1.32h-.6c-.663 0-1.2-.59-1.2-1.32v-8.36zm16.721 15.653L17.247 2.998c-.78-1.33-2.713-1.33-3.494 0L.279 25.973C-.508 27.315.465 29 2.027 29h26.946c1.562 0 2.535-1.685 1.748-3.027z"/></symbol><symbol viewBox="0 0 20 32" id="arrow-down"><path d="M13.997 14V7a1 1 0 0 0-1-1H6.993a.996.996 0 0 0-.996.996V14H2.132a1 1 0 0 0-.768 1.64l8.057 9.669a.75.75 0 0 0 1.152 0l8.057-9.669a1 1 0 0 0-.768-1.64h-3.865z"/></symbol><symbol viewBox="0 0 20 32" id="arrow-left"><path d="M11.998 19.997h7a1 1 0 0 0 1-1v-6a1 1 0 0 0-1-1h-7V8.132a1 1 0 0 0-1.64-.768L.69 15.42a.75.75 0 0 0 0 1.152l9.67 8.057a1 1 0 0 0 1.64-.768v-3.865z"/></symbol><symbol viewBox="0 0 20 32" id="arrow-right"><path d="M8 19.997H1a1 1 0 0 1-1-1v-6a1 1 0 0 1 1-1h7V8.132a1 1 0 0 1 1.64-.768l9.669 8.057a.75.75 0 0 1 0 1.152L9.64 24.63A1 1 0 0 1 8 23.862v-3.865z"/></symbol><symbol viewBox="0 0 20 32" id="arrow-up"><path d="M13.997 17.998v7a1 1 0 0 1-1 1H6.993a.996.996 0 0 1-.996-.996v-7.004H2.132a1 1 0 0 1-.768-1.64L9.42 6.69a.75.75 0 0 1 1.152 0l8.057 9.67a1 1 0 0 1-.768 1.64h-3.865z"/></symbol></svg>