<?xml version="1.0" encoding="utf-8"?><svg xmlns="http://www.w3.org/2000/svg" xmlns:xlink="http://www.w3.org/1999/xlink"><symbol viewBox="0 0 48 48" id="alert"><path fill-opacity=".2" d="M47.587 39.516L27.593 5.478c-1.16-1.97-4.027-1.97-5.186 0L2.413 39.516C1.246 41.504 2.69 44 5.007 44h39.986c2.317 0 3.761-2.496 2.594-4.484z"/><path d="M45.587 37.516L25.593 3.478c-1.16-1.97-4.027-1.97-5.186 0L.413 37.516C-.754 39.504.69 42 3.007 42h39.986c2.317 0 3.761-2.496 2.594-4.484zM20 15a3 3 0 0 1 6 0v9.002a3 3 0 0 1-6 0V15zm-.5 18c0-1.933 1.57-3.5 3.5-3.5 1.933 0 3.5 1.57 3.5 3.5 0 1.933-1.57 3.5-3.5 3.5-1.933 0-3.5-1.57-3.5-3.5z"/></symbol><symbol viewBox="0 0 30 48" id="arrow-down"><path d="M23 23V13a2 2 0 0 0-2-2h-8a2 2 0 0 0-2 2v10H5.845c-1.526 0-2.36 1.78-1.383 2.952l9.774 11.729a3.601 3.601 0 0 0 5.532 0l9.774-11.729c.977-1.172.143-2.952-1.383-2.952H23z" opacity=".2"/><path d="M21 21V11a2 2 0 0 0-2-2h-8a2 2 0 0 0-2 2v10H3.843c-1.526 0-2.36 1.78-1.383 2.952l9.774 11.729a3.601 3.601 0 0 0 5.532 0l9.774-11.729c.977-1.172.143-2.952-1.383-2.952H21z"/></symbol><symbol viewBox="0 0 30 48" id="arrow-left"><path d="M18.003 31.997h10a2 2 0 0 0 2-2v-8a2 2 0 0 0-2-2h-10v-4.033c0-1.547-1.821-2.373-2.985-1.355l-11.233 8.52a3.599 3.599 0 0 0 0 5.736l11.233 8.52c1.164 1.018 2.985.192 2.985-1.355v-4.033z" opacity=".2"/><path d="M16.003 29.997h10a2 2 0 0 0 2-2v-8a2 2 0 0 0-2-2h-10v-4.033c0-1.547-1.821-2.373-2.985-1.355l-11.233 8.52a3.599 3.599 0 0 0 0 5.736l11.233 8.52c1.164 1.018 2.985.192 2.985-1.355v-4.033z"/></symbol><symbol viewBox="0 0 30 48" id="arrow-right"><path d="M14 31.748H4c-1.105 0-2-.933-2-2.085v-8.336c0-1.152.895-2.085 2-2.085h10V15.04c0-1.612 1.821-2.473 2.985-1.412l11.233 8.878c1.9 1.5 1.9 4.477 0 5.978l-11.233 8.878c-1.164 1.061-2.985.2-2.985-1.412v-4.202z" opacity=".2"/><path d="M12 29.997H2a2 2 0 0 1-2-2v-8a2 2 0 0 1 2-2h10v-4.033c0-1.547 1.821-2.373 2.985-1.355l11.233 8.52a3.599 3.599 0 0 1 0 5.736l-11.233 8.52C13.821 36.403 12 35.577 12 34.03v-4.033z"/></symbol><symbol viewBox="0 0 30 48" id="arrow-up"><path d="M23 28.976v10a2 2 0 0 1-2 2h-8a2 2 0 0 1-2-2v-10H5.845c-1.526 0-2.36-1.78-1.383-2.952l9.774-11.729a3.601 3.601 0 0 1 5.532 0l9.774 11.73c.977 1.171.143 2.951-1.383 2.951H23z" opacity=".2"/><path d="M21 26.976v10a2 2 0 0 1-2 2h-8a2 2 0 0 1-2-2v-10H3.843c-1.526 0-2.36-1.78-1.383-2.952l9.774-11.729a3.601 3.601 0 0 1 5.532 0l9.774 11.73c.977 1.171.143 2.951-1.383 2.951H21z"/></symbol></svg>