<?xml version="1.0" encoding="UTF-8" standalone="no"?><svg xmlns="http://www.w3.org/2000/svg" xmlns:xlink="http://www.w3.org/1999/xlink"><symbol viewBox="0 0 32 32" id="alert"><title>m/alert</title><path d="M17.3 23.86a1.44 1.44 0 0 1-1.44 1.44h-.72a1.44 1.44 0 0 1-1.44-1.44v-.72c0-.795.645-1.44 1.44-1.44h.72c.795 0 1.44.645 1.44 1.44v.72zM14 10.32c0-.73.537-1.32 1.2-1.32h.6c.663 0 1.2.59 1.2 1.32v8.36c0 .73-.537 1.32-1.2 1.32h-.6c-.663 0-1.2-.59-1.2-1.32v-8.36zm16.721 15.653L17.247 2.998c-.78-1.33-2.713-1.33-3.494 0L.279 25.973C-.508 27.315.465 29 2.027 29h26.946c1.562 0 2.535-1.685 1.748-3.027z" fill="#020302" fill-rule="evenodd"/></symbol></svg>