<?xml version="1.0" encoding="UTF-8" standalone="no"?><svg xmlns="http://www.w3.org/2000/svg" xmlns:xlink="http://www.w3.org/1999/xlink"><symbol viewBox="0 0 48 48" id="alert"><title>l/alert</title><g fill="#020302" fill-rule="evenodd"><path d="M47.587 39.516L27.593 5.478c-1.16-1.97-4.027-1.97-5.186 0L2.413 39.516C1.246 41.504 2.69 44 5.007 44h39.986c2.317 0 3.761-2.496 2.594-4.484z" fill-opacity=".2"/><path d="M45.587 37.516L25.593 3.478c-1.16-1.97-4.027-1.97-5.186 0L.413 37.516C-.754 39.504.69 42 3.007 42h39.986c2.317 0 3.761-2.496 2.594-4.484zM20 15a3 3 0 0 1 6 0v9.002a3 3 0 0 1-6 0v-9.002zM19.5 33c0-1.933 1.57-3.5 3.5-3.5 1.933 0 3.5 1.57 3.5 3.5 0 1.933-1.57 3.5-3.5 3.5-1.933 0-3.5-1.57-3.5-3.5z"/></g></symbol></svg>