<?xml version="1.0" encoding="utf-8"?><svg xmlns="http://www.w3.org/2000/svg" xmlns:xlink="http://www.w3.org/1999/xlink"><symbol viewBox="0 0 16 16" id="alert"><path d="M8.865 1.52c-.18-.31-.51-.5-.87-.5s-.69.19-.87.5L.275 13.5c-.18.31-.18.69 0 1 .19.31.52.5.87.5h13.7c.36 0 .69-.19.86-.5.17-.31.18-.69.01-1L8.865 1.52zM8.995 13h-2v-2h2v2zm0-3h-2V6h2v4z"/></symbol><symbol viewBox="0 0 10 16" id="arrow-down"><path d="M7 7V3H3v4H0l5 6 5-6z"/></symbol><symbol viewBox="0 0 10 16" id="arrow-left"><path d="M6 10h4V6H6V3L0 8l6 5z"/></symbol><symbol viewBox="0 0 10 16" id="arrow-right"><path d="M4 10H0V6h4V3l6 5-6 5z"/></symbol><symbol viewBox="0 0 10 16" id="arrow-up"><path d="M7 9v4H3V9H0l5-6 5 6z"/></symbol></svg>